<?xml version="1.0" encoding="utf-8"?>
<!-- Generator: Adobe Illustrator 26.2.1, SVG Export Plug-In . SVG Version: 6.00 Build 0)  -->
<svg version="1.1" xmlns="http://www.w3.org/2000/svg" xmlns:xlink="http://www.w3.org/1999/xlink" x="0px" y="0px"
	 viewBox="0 0 100 100" enable-background="new 0 0 100 100" xml:space="preserve">
<g id="RUI-Outline">
	<path fill="none" stroke="#FFFFFF" stroke-width="18.7144" stroke-linecap="round" stroke-linejoin="round" d="M89.93,74.63
		c0.31,0.69,0.25,1.52-0.02,2.38c-0.91,2.95-3.71,4.92-6.8,4.88c-1.15-0.01-2.38-0.09-3.44-0.29c-2.95-0.56-4.27-1.41-4.27-4.84
		V54.79v21.29c0,6.08-10.81,6.42-10.81,6.42s-6.25,0-10.81-5.58V55.81v17.76c0,4.15-2.93,7.73-7.01,8.52
		c-1.38,0.26-3.02,0.42-4.99,0.42c-11.66,0-11.66-17.07-9.46-26.87c2.2-9.8-15.37-9.46-15.37-9.46s2.58,0.61,5.74,0.35
		c5.3-0.44,12.33-3.34,12.33-15.72c0-13.11-11.07-13.96-18.53-13.05c-3.79,0.47-6.65,3.68-6.65,7.5v55.63"/>
	<circle fill="none" stroke="#FFFFFF" stroke-width="12.4763" stroke-miterlimit="10" cx="75.41" cy="41.05" r="4.5"/>

		<line fill="none" stroke="#FFFFFF" stroke-width="18.7144" stroke-linecap="round" stroke-linejoin="round" x1="21.04" y1="18.97" x2="21.04" y2="43.05"/>
</g>
<g id="RUI">
	<circle cx="75.41" cy="41.05" r="4.5"/>
	<path fill="none" stroke="#000000" stroke-width="7.7977" stroke-linecap="round" stroke-linejoin="round" d="M89.93,74.63
		c0.31,0.69,0.25,1.52-0.02,2.38c-0.91,2.95-3.71,4.92-6.8,4.88c-1.15-0.01-2.38-0.09-3.44-0.29c-2.95-0.56-4.27-1.41-4.27-4.84
		V54.79v21.29c0,6.08-10.81,6.42-10.81,6.42s-6.25,0-10.81-5.58V55.81v17.76c0,4.15-2.93,7.73-7.01,8.52
		c-1.38,0.26-3.02,0.42-4.99,0.42c-11.66,0-11.66-17.07-9.46-26.87c2.2-9.8-15.37-9.46-15.37-9.46s18.08,4.39,18.08-15.38
		c0-13.11-11.07-13.96-18.53-13.05c-3.79,0.47-6.65,3.68-6.65,7.5v55.63"/>
</g>
</svg>
