<?xml version="1.0" encoding="UTF-8"?>
<!-- Generator: Adobe Illustrator 26.0.0, SVG Export Plug-In . SVG Version: 6.00 Build 0)  -->
<svg version="1.1" id="Layer_1" xmlns="http://www.w3.org/2000/svg" xmlns:xlink="http://www.w3.org/1999/xlink" x="0px" y="0px" viewBox="0 0 238 30" style="enable-background:new 0 0 238 30;" xml:space="preserve">
<style type="text/css">
	.st0{fill:#BA0C2F;}
	.st1{fill:#3F4443;}
</style>
<g id="Group_554" transform="translate(-877 -1014.791)">
	<g id="Group_524">
		<path id="Fill_2" class="st0" d="M893.7,1042.6h-10l-4.6-4.6v-16.4l4.6-4.6h10l4.6,4.6v16.5L893.7,1042.6z M885.7,1021.8    L885.7,1021.8l-1.9,1.9v12.4l1.9,1.9h6l1.9-1.9v-12.4l-1.9-1.9H885.7z"/>
		<path id="Fill_3" class="st1" d="M894.1,1043.8h-10.9l-5.2-5.3v-17.4l5.3-5.3h10.9l5.2,5.3v17.5L894.1,1043.8L894.1,1043.8z     M894,1016.3h-10.5l-5,5v17l5,5h10.4l5-5l0-17.1L894,1016.3z"/>
		<path id="Fill_4" class="st1" d="M891.4,1037.1H886l-1.4-1.4v-11.8l1.5-1.5h5.3l1.5,1.5v11.8L891.4,1037.1z M886.2,1023    L886.2,1023l-1.2,1.2v11.4l1.1,1.1h5l1.1-1.1v-11.4l-1.2-1.2H886.2L886.2,1023z"/>
	</g>
	<g id="Group_512" transform="translate(25213 10717.686)">
		<path id="Fill_5" class="st1" d="M-24297.4-9690.6l-0.2-1.3h-2.4v8.6l1.3,0.2v0.8h-4.6v-0.8l1.3-0.2v-8.6h-2.4l-0.2,1.3h-0.9v-2.5    h9.1v2.5H-24297.4z"/>
		<path id="Fill_6" class="st1" d="M-24290.7-9682.3v-0.8l1.2-0.2v-2.9h-3.2v2.9l1.2,0.2v0.8h-4.4v-0.8l1.3-0.2v-6.5l-1.3-0.2v-0.8    h4.4v0.8l-1.2,0.2v2.5h3.2v-2.5l-1.2-0.2v-0.8h4.4v0.8l-1.3,0.2v6.5l1.3,0.2v0.8L-24290.7-9682.3z"/>
		<path id="Fill_7" class="st1" d="M-24278-9682.3h-7.3v-0.8l1.3-0.2v-6.5l-1.3-0.2v-0.8h7.3v2.2h-0.8l-0.2-1.2h-3.1v2.5h1.9    l0.2-1.1h0.7v3.1h-0.7l-0.2-1.1h-1.9v2.9h3.1l0.2-1.2h0.8V-9682.3z"/>
		<g id="Group_46" transform="translate(-24271.705 -9694.041)">
			<path id="Fill_8" class="st1" d="M3.9,11.9c-1.4,0.1-2.7-0.4-3.7-1.5C-0.6,9.2-1,7.8-0.9,6.3c0-3.7,1.6-5.6,4.8-5.6     c1.4-0.1,2.7,0.4,3.7,1.5c0.9,1.2,1.3,2.7,1.2,4.2C8.8,10.1,7.2,11.9,3.9,11.9z M3.9,1.9c-0.8,0-1.6,0.4-2,1.1     C1.4,4,1.2,5.2,1.2,6.3c0,3,0.9,4.4,2.7,4.4c0.8,0,1.6-0.4,2-1.1c0.5-1,0.8-2.2,0.7-3.3C6.6,3.4,5.7,1.9,3.9,1.9z"/>
			<path id="Fill_10" class="st1" d="M14.8,11.7v-0.8l1.2-0.2V7.8h-3.2v2.9l1.2,0.2v0.8H9.6v-0.8l1.3-0.2V4.2L9.6,4V3.3H14V4     l-1.2,0.2v2.5H16V4.2L14.8,4V3.3h4.4V4L18,4.2v6.5l1.3,0.2v0.8L14.8,11.7z"/>
			<path id="Fill_12" class="st1" d="M20.3,11.7v-0.8l1.3-0.2V4.2L20.3,4V3.3h4.4V4l-1.3,0.2v6.5l1.3,0.2v0.8L20.3,11.7z"/>
			<path id="Fill_14" class="st1" d="M29.5,11.9c-1.2,0.1-2.3-0.3-3.1-1.1c-0.7-0.9-1.1-2.1-1-3.2c-0.1-1.2,0.3-2.3,1-3.2     c0.8-0.8,2-1.2,3.1-1.1c1.2-0.1,2.3,0.3,3.1,1.1c0.7,0.9,1.1,2.1,1,3.2c0.1,1.2-0.3,2.3-1,3.2C31.8,11.6,30.6,12,29.5,11.9z      M29.5,4.2c-1.4,0-2.1,1.1-2.1,3.2c0,2.2,0.6,3.3,2,3.3s2.1-1.1,2.1-3.2C31.6,5.3,30.9,4.2,29.5,4.2L29.5,4.2z"/>
			<path id="Fill_16" class="st1" d="M42.4,11.9c-1.2,0-2.3-0.2-3.4-0.6V9H40l0.2,1.5c0.6,0.2,1.3,0.3,1.9,0.2     c1.3,0,2.4-0.4,2.4-1.8c0-1.2-0.9-1.4-1.9-1.8c-1.7-0.6-3.5-1-3.5-3.4c0-1.9,1.2-3,3.6-3c1.1,0,2.2,0.2,3.2,0.6v2.2H45l-0.2-1.4     c-0.6-0.1-1.3-0.2-1.9-0.2c-0.9,0-1.9,0.3-1.9,1.6c0,2.7,5.4,0.9,5.4,5.2C46.4,10.7,45.1,11.9,42.4,11.9"/>
			<path id="Fill_18" class="st1" d="M54,5.6l-0.2-1.3H52v6.5l1.3,0.2v0.8h-4.4v-0.8l1.3-0.2V4.3h-1.9L48,5.6h-0.8V3.3h7.7v2.3H54z"/>
			<path id="Fill_20" class="st1" d="M58,11.7h-3.7v-0.8l1.2-0.2l2.9-7.5h1.9l2.9,7.5l1.2,0.2v0.8H60v-0.8l1.2-0.2l-0.6-1.5h-3.2     l-0.6,1.5l1.2,0.2L58,11.7L58,11.7z M59,4.9l-1.2,3.3h2.4L59,4.9z"/>
			<path id="Fill_22" class="st1" d="M70.8,5.6l-0.2-1.3h-1.9v6.5l1.3,0.2v0.8h-4.4v-0.8l1.3-0.2V4.3h-1.9l-0.2,1.3h-0.8V3.3h7.7     v2.3H70.8z"/>
			<path id="Fill_24" class="st1" d="M79.6,11.7h-7.3v-0.8l1.3-0.2V4.2L72.3,4V3.3h7.3v2.2h-0.8l-0.2-1.2h-3.1v2.5h1.9l0.2-1.1h0.7     v3.1h-0.7l-0.2-1.1h-1.9v2.9h3.1l0.2-1.2h0.8V11.7z"/>
			<path id="Fill_26" class="st1" d="M94.3,1.9v5.5c0,1.9-0.1,2.7-1,3.5c-0.9,0.7-2,1.1-3.2,0.9c-1.2,0.1-2.4-0.3-3.4-1.1     C85.9,9.9,86,8.5,86,7.3V1.9l-1.3-0.2V0.9h4.6v0.8L88,1.9v6.3c-0.2,1.2,0.7,2.3,1.9,2.5c0.2,0,0.4,0,0.6,0     c0.7,0.1,1.4-0.2,1.9-0.6C92.8,9.6,93,8.9,93,8.3V1.9l-1.3-0.2V0.9h3.9v0.8L94.3,1.9z"/>
			<path id="Fill_28" class="st1" d="M104.5,4.2v7.5H103l-4.3-6v5.1l1.3,0.2v0.8h-3.8v-0.8l1.3-0.2V4.2L96.1,4V3.3h2.9l4.1,5.8V4.2     L102,4V3.3h3.8V4L104.5,4.2z"/>
			<path id="Fill_30" class="st1" d="M106.7,11.7v-0.8l1.3-0.2V4.2L106.7,4V3.3h4.4V4l-1.3,0.2v6.5l1.3,0.2v0.8L106.7,11.7z"/>
			<path id="Fill_32" class="st1" d="M120.6,4.2l-2.8,7.5h-1.9l-2.8-7.5L111.9,4V3.3h4.4V4l-1.2,0.2l2.1,5.8l2.1-5.8L118.1,4V3.3     h3.7V4L120.6,4.2z"/>
			<path id="Fill_34" class="st1" d="M129.8,11.7h-7.3v-0.8l1.3-0.2V4.2L122.5,4V3.3h7.3v2.2H129l-0.2-1.2h-3.1v2.5h1.9l0.2-1.1h0.7     v3.1h-0.7l-0.2-1.1h-1.9v2.9h3.1l0.2-1.2h0.8L129.8,11.7z"/>
			<path id="Fill_36" class="st1" d="M135.5,11.7h-4.4v-0.8l1.3-0.2V4.2L131.1,4V3.3h4.3c0.9-0.1,1.8,0.1,2.5,0.7     c0.4,0.4,0.7,1,0.7,1.6c0,1-0.6,1.8-1.5,2.1c0.7,0.8,1.2,1.7,1.5,2.7c0.1,0.2,0.1,0.3,0.2,0.4l1.2,0.2v0.8h-2.7l-0.8-1.9     c-0.5-1.2-0.8-1.9-2-1.9h-0.1v2.8l1.2,0.2C135.5,10.9,135.5,11.7,135.5,11.7z M134.3,4.2V7h0.3h0.2h0.2c0.5,0.1,1-0.1,1.3-0.4     c0.2-0.3,0.3-0.6,0.3-1c0-0.4-0.1-0.7-0.4-1c-0.4-0.3-0.8-0.4-1.2-0.3L134.3,4.2L134.3,4.2z"/>
			<path id="Fill_38" class="st1" d="M143.7,11.9c-1,0-2-0.2-2.9-0.5V9.2h0.9l0.2,1.4c0.5,0.1,1,0.2,1.6,0.2c1,0,1.8-0.3,1.8-1.3     c0-0.6-0.4-0.9-0.9-1c-1.6-0.5-3.6-0.8-3.6-2.9c0-1.5,1.1-2.4,3.1-2.4c1,0,1.9,0.2,2.8,0.5v2.1h-0.9l-0.2-1.3     c-0.5-0.1-1-0.2-1.5-0.2c-0.8,0-1.5,0.3-1.5,1.1c0,1.9,4.5,0.6,4.5,4C147.2,10.9,146,11.9,143.7,11.9"/>
			<path id="Fill_40" class="st1" d="M148.3,11.7v-0.8l1.3-0.2V4.2L148.3,4V3.3h4.4V4l-1.3,0.2v6.5l1.3,0.2v0.8L148.3,11.7z"/>
			<path id="Fill_42" class="st1" d="M160.5,5.6l-0.2-1.3h-1.9v6.5l1.3,0.2v0.8h-4.4v-0.8l1.3-0.2V4.3h-1.9l-0.2,1.3h-0.8V3.3h7.7     v2.3H160.5z"/>
			<path id="Fill_44" class="st1" d="M170.2,4.2L167.8,8v2.7l1.3,0.2v0.8h-4.4v-0.8l1.3-0.2V8l-2.5-3.8L162.1,4V3.3h4.5V4l-1.2,0.2     l1.7,2.7l1.7-2.7L167.7,4V3.3h3.7V4L170.2,4.2z"/>
		</g>
	</g>
</g>
</svg>