<?xml version="1.0" encoding="UTF-8"?>
<!-- Generator: Adobe Illustrator 25.4.1, SVG Export Plug-In . SVG Version: 6.00 Build 0)  -->
<svg version="1.1" id="Layer_1" xmlns="http://www.w3.org/2000/svg" xmlns:xlink="http://www.w3.org/1999/xlink" x="0px" y="0px" viewBox="0 0 576 90" style="enable-background:new 0 0 576 90;" xml:space="preserve">
<style type="text/css">
	.st0{fill:#FFFFFF;}
	.st1{fill:#BB0000;}
</style>
<g>
	<polygon class="st0" points="83.9,64.5 83.9,65.9 576,65.9 576,64.5 83.9,64.5  "/>
	<path class="st1" d="M17.1,26.8l5.5-5.5h17.8l5.5,5.5v36.6l-5.5,5.5H22.6l-5.5-5.5V26.8L17.1,26.8z M59.8,20.8L46.2,7.3H16.8   L3.2,20.9v48.3l13.6,13.6h29.4l13.6-13.5V20.8L59.8,20.8z"/>
	<path class="st0" d="M1.4,70V19.9L16.2,5.1l30.9,0l14.5,14.6l0,50.5L46.9,84.8l-30.8,0L1.4,70L1.4,70z M15.5,3.7L0,19.2v51.4   l15.4,15.6h32.1l15.5-15.6V19.2L47.7,3.7H15.5L15.5,3.7z"/>
	<path class="st0" d="M24.2,24.8h14.6l3.5,3.5v33.6L39,65.3H24.1L20.8,62V28.3L24.2,24.8L24.2,24.8z M43.7,27.8l-4.4-4.4H23.6   l-4.3,4.3v34.8l4.2,4.2h16l4.2-4.2V27.8L43.7,27.8z"/>
	<g>
		<path class="st0" d="M103.4,30.6l-0.5-3.2h-5.8V48l3.1,0.5v2H89.2v-2l3.1-0.5V27.4h-5.8L86,30.6h-2.1v-5.9h21.6v5.9H103.4z"/>
		<path class="st0" d="M119.5,50.5v-1.8l2.9-0.5v-7h-7.7v7l2.9,0.5v1.8h-10.5v-1.8l3-0.5V32.6l-3-0.5v-1.8h10.5v1.8l-2.9,0.5v6.1    h7.7v-6.1l-2.9-0.5v-1.8H130v1.8l-3,0.5v15.6l3,0.5v1.8H119.5z"/>
		<path class="st0" d="M149.7,50.5h-17.4v-1.8l3-0.5V32.6l-3-0.5v-1.8h17.4v5.3h-2l-0.5-2.9h-7.4v6h4.6l0.5-2.6h1.7v7.5h-1.7    l-0.5-2.6h-4.6v7h7.4l0.5-2.9h2V50.5z"/>
		<path class="st0" d="M174.2,50.9c-8,0-11.5-4.8-11.5-13.4c0-8.6,3.5-13.3,11.5-13.3c8,0,11.5,4.8,11.5,13.4    C185.7,46.3,182.2,50.9,174.2,50.9z M174.2,27c-4.3,0-6.5,3.4-6.5,10.5c0,7.1,2.1,10.6,6.4,10.6c4.3,0,6.5-3.4,6.5-10.5    C180.6,30.5,178.5,27,174.2,27z"/>
		<path class="st0" d="M200.2,50.5v-1.8l2.9-0.5v-7h-7.7v7l2.9,0.5v1.8h-10.5v-1.8l3-0.5V32.6l-3-0.5v-1.8h10.5v1.8l-2.9,0.5v6.1    h7.7v-6.1l-2.9-0.5v-1.8h10.5v1.8l-3,0.5v15.6l3,0.5v1.8H200.2z"/>
		<path class="st0" d="M213.2,50.5v-1.8l3-0.5V32.6l-3-0.5v-1.8h10.6v1.8l-3,0.5v15.6l3,0.5v1.8H213.2z"/>
		<path class="st0" d="M235.3,50.9c-6.8,0-9.8-3.8-9.8-10.5c0-6.7,3-10.4,9.8-10.4c6.8,0,9.8,3.8,9.8,10.5    C245.1,47.1,242.1,50.9,235.3,50.9z M235.3,32.6c-3.2,0-5,2.3-5,7.8c0,5.5,1.7,7.9,4.9,7.9c3.2,0,5-2.3,5-7.8    C240.2,35,238.5,32.6,235.3,32.6z"/>
		<path class="st0" d="M266.1,50.9c-4.5,0-8-1.5-8-1.5v-5.5h2.2l0.5,3.5c0,0,1.7,0.6,4.6,0.6c3,0,5.7-1,5.7-4.3c0-3-2.1-3.4-4.6-4.2    c-4-1.3-8.3-2.5-8.3-8c0-4.5,2.8-7.2,8.7-7.2c2.7,0,5.5,0.6,7.7,1.5v5.2h-2.2l-0.5-3.3c0,0-2.3-0.5-4.5-0.5    c-2.2,0-4.5,0.8-4.5,3.7c0,6.4,12.9,2.2,12.9,12.5C275.7,48.1,272.5,50.9,266.1,50.9z"/>
		<path class="st0" d="M293.9,35.8l-0.5-3.1H289v15.4l3,0.5v1.8h-10.6v-1.8l3-0.5V32.7h-4.5l-0.5,3.1h-2v-5.6h18.4v5.6H293.9z"/>
		<path class="st0" d="M308.2,50.5v-1.8l2.9-0.5l-1.4-3.7H302l-1.4,3.7l2.9,0.5v1.8h-8.8v-1.8l2.9-0.5l6.9-17.9h4.4l6.9,17.9    l2.9,0.5v1.8H308.2z M305.8,34.2l-2.9,8h5.9L305.8,34.2z"/>
		<path class="st0" d="M333.9,35.8l-0.5-3.1H329v15.4l3,0.5v1.8h-10.6v-1.8l3-0.5V32.7h-4.5l-0.5,3.1h-2v-5.6h18.4v5.6H333.9z"/>
		<path class="st0" d="M355,50.5h-17.4v-1.8l3-0.5V32.6l-3-0.5v-1.8H355v5.3h-2l-0.5-2.9h-7.4v6h4.6l0.5-2.6h1.7v7.5h-1.7l-0.5-2.6    h-4.6v7h7.4l0.5-2.9h2V50.5z"/>
		<path class="st0" d="M390.2,27.1v13.2c0,4.4-0.3,6.3-2.3,8.4c-1.5,1.5-4,2.2-7.6,2.2c-3.6,0-6.3-1-8-2.7c-2.2-2.2-2-5.5-2-8.3    V27.1l-3.1-0.5v-2h11.1v2l-3.1,0.5v15.1c0,4.2,2.3,5.9,6,5.9c1.9,0,3.5-0.4,4.5-1.5c0.9-1,1.4-2.5,1.4-4.4V27.1l-3.1-0.5v-2h9.4v2    L390.2,27.1z"/>
		<path class="st0" d="M414.5,32.6v17.9h-3.6L400.6,36v12.1l3,0.5v1.8h-9v-1.8l3-0.5V32.6l-3-0.5v-1.8h7l9.9,13.8V32.6l-3-0.5v-1.8    h9v1.8L414.5,32.6z"/>
		<path class="st0" d="M419.8,50.5v-1.8l3-0.5V32.6l-3-0.5v-1.8h10.6v1.8l-3,0.5v15.6l3,0.5v1.8H419.8z"/>
		<path class="st0" d="M453,32.6l-6.7,17.9h-4.5l-6.7-17.9l-2.9-0.5v-1.8h10.5v1.8l-2.9,0.5l5.1,13.9l5.1-13.9l-2.9-0.5v-1.8h8.8    v1.8L453,32.6z"/>
		<path class="st0" d="M474.9,50.5h-17.4v-1.8l3-0.5V32.6l-3-0.5v-1.8h17.4v5.3h-2l-0.5-2.9h-7.4v6h4.6l0.5-2.6h1.7v7.5h-1.7    l-0.5-2.6h-4.6v7h7.4l0.5-2.9h2V50.5z"/>
		<path class="st0" d="M492.6,50.5l-1.9-4.6c-1.3-3.1-2-4.5-4.7-4.5h-0.3v6.8l2.9,0.5v1.8H478v-1.8l3-0.5V32.6l-3-0.5v-1.8h10.2    c2.1,0,4.5,0.1,6.1,1.6c1,1,1.6,2.3,1.6,3.8c0,2.3-1.5,4.5-3.7,5.1c1.7,1.3,3.2,5.4,4,7.4l2.9,0.5v1.8H492.6z M490.5,33.3    c-0.8-0.8-2.4-0.7-3.5-0.7h-1.3v6.5h0.8c1.3,0,3.1,0.2,4.1-0.9c0.6-0.7,0.8-1.5,0.8-2.4C491.3,34.9,491.1,34,490.5,33.3z"/>
		<path class="st0" d="M508.3,50.9c-3.8,0-6.9-1.3-6.9-1.3v-5.2h2.1l0.5,3.3c0,0,1.5,0.4,3.7,0.4c2.5,0,4.3-0.8,4.3-3    c0-1.5-0.8-2.1-2.1-2.5c-3.7-1.3-8.5-1.8-8.5-6.9c0-3.6,2.5-5.8,7.5-5.8c2.3,0,4.6,0.5,6.7,1.2v5h-2.1l-0.5-3.2    c0,0-1.7-0.4-3.6-0.4c-1.9,0-3.5,0.7-3.5,2.6c0,4.5,10.7,1.5,10.7,9.5C516.5,48.6,513.6,50.9,508.3,50.9z"/>
		<path class="st0" d="M519.2,50.5v-1.8l3-0.5V32.6l-3-0.5v-1.8h10.6v1.8l-3,0.5v15.6l3,0.5v1.8H519.2z"/>
		<path class="st0" d="M548.4,35.8l-0.5-3.1h-4.5v15.4l3,0.5v1.8h-10.6v-1.8l3-0.5V32.7h-4.5l-0.5,3.1h-2v-5.6h18.4v5.6H548.4z"/>
		<path class="st0" d="M571.6,32.6l-5.9,9.1v6.5l3,0.5v1.8h-10.6v-1.8l3-0.5v-6.5l-6-9.1l-2.9-0.5v-1.8H563v1.8l-2.9,0.5l4.2,6.5    l4.1-6.5l-2.8-0.5v-1.8h8.9v1.8L571.6,32.6z"/>
	</g>
</g>
</svg>