<svg xmlns="http://www.w3.org/2000/svg" width="74.54" height="97.573" viewBox="0 0 74.54 97.573">
  <path id="Path_97" data-name="Path 97" d="M96.827,38.955l6.481-6.481h21.018l6.481,6.481V82.168l-6.481,6.481H103.308l-6.481-6.481V38.955ZM147.183,31.9,131.157,15.91H96.452L80.35,32.037V89.1l16.1,16.127h34.705l16.027-15.939V31.9Z" transform="translate(-76.497 -11.669)" fill="#ba0c2f"/>
  <path id="Path_98" data-name="Path 98" d="M78.909,90.889V31.624L96.349,14.2h36.469l17.515,17.428-.3,59.389-17.328,17.328H96.362L78.909,90.889ZM95.624,12.533,77.27,30.886V91.639L95.5,110.093h37.958l18.228-18.354.125-60.866L133.582,12.52H95.624Z" transform="translate(-77.27 -12.52)" fill="#666"/>
  <path id="Path_99" data-name="Path 99" d="M101.343,32.8H118.57l4.116,4.1V76.642L118.733,80.6h-17.54l-3.891-3.9V36.857l4.041-4.054Zm23.008,3.491-5.142-5.155H100.629L95.55,36.219V77.293l4.967,4.967h18.9l4.929-4.929V36.295Z" transform="translate(-72.68 -7.845)" fill="#666"/>
</svg>